mtllib material.mtl
usemtl material_0
v 0.00842500 0.00506800 0.01432000
v 0.00842500 0.00506800 0.01432000
v 0.00842500 0.00506800 0.01432000
v -0.01007500 0.00506800 0.01432000
v -0.01007500 0.00506800 0.01432000
v -0.01007500 0.00506800 0.01432000
v -0.01007500 -0.00263200 0.01432000
v -0.01007500 -0.00263200 0.01432000
v -0.01007500 -0.00263200 0.01432000
v 0.00842500 -0.00263200 0.01432000
v 0.00842500 -0.00263200 0.01432000
v 0.00842500 -0.00263200 0.01432000
v -0.01007500 0.00386800 0.01032000
v -0.01007500 0.00386800 0.01032000
v -0.01007500 0.00386800 0.01032000
v 0.00842500 0.00386800 0.01032000
v 0.00842500 0.00386800 0.01032000
v 0.00842500 0.00386800 0.01032000
v 0.00842500 -0.00143200 0.01032000
v 0.00842500 -0.00143200 0.01032000
v 0.00842500 -0.00143200 0.01032000
v -0.01007500 -0.00143200 0.01032000
v -0.01007500 -0.00143200 0.01032000
v -0.01007500 -0.00143200 0.01032000
v -0.01007500 0.00386800 0.01272000
v -0.01007500 0.00386800 0.01272000
v -0.01007500 0.00386800 0.01272000
v 0.00842500 0.00386800 0.01272000
v 0.00842500 0.00386800 0.01272000
v 0.00842500 0.00386800 0.01272000
v 0.00842500 -0.00263200 0.01392000
v 0.00842500 -0.00263200 0.01392000
v 0.00842500 -0.00263200 0.01392000
v -0.01007500 -0.00263200 0.01392000
v -0.01007500 -0.00263200 0.01392000
v -0.01007500 -0.00263200 0.01392000
v -0.01007500 -0.00143200 0.01272000
v -0.01007500 -0.00143200 0.01272000
v -0.01007500 -0.00143200 0.01272000
v 0.00842500 -0.00143200 0.01272000
v 0.00842500 -0.00143200 0.01272000
v 0.00842500 -0.00143200 0.01272000
v 0.00842500 0.00506800 0.01392000
v 0.00842500 0.00506800 0.01392000
v 0.00842500 0.00506800 0.01392000
v -0.01007500 0.00506800 0.01392000
v -0.01007500 0.00506800 0.01392000
v -0.01007500 0.00506800 0.01392000
vn 0.00000000 0.00000000 100.00000000
vn 100.00000000 -0.00000000 -0.00000000
vn 0.00000000 100.00000000 -0.00000000
vn 0.00000000 100.00000000 -0.00000000
vn -100.00000000 0.00000000 0.00000000
vn 0.00000000 0.00000000 100.00000000
vn 0.00000000 0.00000000 100.00000000
vn -100.00000000 0.00000000 0.00000000
vn -0.00000000 -100.00000000 0.00000000
vn -0.00000000 -100.00000000 0.00000000
vn 0.00000000 0.00000000 100.00000000
vn 100.00000000 -0.00000000 -0.00000000
vn -100.00000000 0.00000000 0.00000000
vn 0.00000000 100.00000000 -0.00000000
vn -0.00000000 -0.00000000 -100.00000000
vn 0.00000000 100.00000000 -0.00000000
vn -0.00000000 -0.00000000 -100.00000000
vn 100.00000000 -0.00000000 -0.00000000
vn 100.00000000 -0.00000000 -0.00000000
vn -0.00000000 -0.00000000 -100.00000000
vn -0.00000000 -100.00000000 0.00000000
vn -100.00000000 0.00000000 0.00000000
vn -0.00000000 -0.00000000 -100.00000000
vn -0.00000000 -100.00000000 0.00000000
vn 0.00000000 100.00000000 -0.00000000
vn -100.00000000 0.00000000 0.00000000
vn -0.00000000 70.71067800 -70.71067800
vn -0.00000000 70.71067800 -70.71067800
vn 0.00000000 100.00000000 -0.00000000
vn 100.00000000 -0.00000000 -0.00000000
vn -0.00000000 -100.00000000 0.00000000
vn -0.00000000 -70.71067800 -70.71067800
vn 100.00000000 -0.00000000 -0.00000000
vn -100.00000000 0.00000000 0.00000000
vn -0.00000000 -70.71067800 -70.71067800
vn -0.00000000 -100.00000000 0.00000000
vn -0.00000000 -100.00000000 0.00000000
vn -100.00000000 0.00000000 0.00000000
vn -0.00000000 -70.71067800 -70.71067800
vn -0.00000000 -70.71067800 -70.71067800
vn -0.00000000 -100.00000000 0.00000000
vn 100.00000000 -0.00000000 -0.00000000
vn -0.00000000 70.71067800 -70.71067800
vn 0.00000000 100.00000000 -0.00000000
vn 100.00000000 -0.00000000 -0.00000000
vn -0.00000000 70.71067800 -70.71067800
vn 0.00000000 100.00000000 -0.00000000
vn -100.00000000 0.00000000 0.00000000
vt -0.92500000 -0.38500000
vt 0.40000000 -0.12000000
vt -0.00000000 -0.20000000
vt -0.00000000 -2.05000000
vt -0.40000000 -0.12000000
vt 0.92500000 -0.38500000
vt 0.92500000 0.38500000
vt -0.40000000 0.65000000
vt -0.00000000 -2.05000000
vt -0.00000000 -0.20000000
vt -0.92500000 0.38500000
vt 0.40000000 0.65000000
vt 0.00000000 0.00000000
vt -0.00000000 -1.85000000
vt -0.92500000 -0.26500000
vt 0.00000000 -0.00000000
vt 0.92500000 -0.26500000
vt 0.00000000 -0.00000000
vt 0.00000000 0.53000000
vt 0.92500000 0.26500000
vt -0.00000000 -0.00000000
vt -0.00000000 0.53000000
vt -0.92500000 0.26500000
vt 0.00000000 -1.85000000
vt 0.24000000 -1.85000000
vt -0.24000000 0.00000000
vt -2.05000000 0.16970600
vt -0.20000000 0.16970600
vt 0.24000000 0.00000000
vt 0.24000000 -0.00000000
vt 0.04000000 -0.20000000
vt -0.20000000 -0.00000000
vt 0.36000000 0.65000000
vt -0.36000000 0.65000000
vt -2.05000000 0.00000000
vt 0.04000000 -2.05000000
vt -0.24000000 -1.85000000
vt -0.24000000 0.53000000
vt -2.05000000 -0.16970600
vt -0.20000000 -0.16970600
vt -0.24000000 0.00000000
vt 0.24000000 0.53000000
vt -0.20000000 0.00000000
vt -0.04000000 -0.20000000
vt 0.36000000 -0.12000000
vt -2.05000000 0.00000000
vt -0.04000000 -2.05000000
vt -0.36000000 -0.12000000
f 1/1/1 6/6/6 11/11/11
f 11/11/11 6/6/6 7/7/7
f 15/15/15 17/17/17 23/23/23
f 23/23/23 17/17/17 20/20/20
f 14/14/14 25/25/25 16/16/16
f 16/16/16 25/25/25 29/29/29
f 32/32/32 35/35/35 40/40/40
f 40/40/40 35/35/35 39/39/39
f 31/31/31 10/10/10 36/36/36
f 36/36/36 10/10/10 9/9/9
f 19/19/19 30/30/30 42/42/42
f 42/42/42 30/30/30 2/2/2
f 42/42/42 2/2/2 12/12/12
f 19/19/19 18/18/18 30/30/30
f 30/30/30 45/45/45 2/2/2
f 12/12/12 33/33/33 42/42/42
f 21/21/21 41/41/41 24/24/24
f 24/24/24 41/41/41 37/37/37
f 34/34/34 8/8/8 38/38/38
f 38/38/38 8/8/8 5/5/5
f 38/38/38 5/5/5 26/26/26
f 26/26/26 5/5/5 48/48/48
f 26/26/26 13/13/13 38/38/38
f 38/38/38 13/13/13 22/22/22
f 28/28/28 27/27/27 43/43/43
f 43/43/43 27/27/27 46/46/46
f 47/47/47 4/4/4 44/44/44
f 44/44/44 4/4/4 3/3/3

