mtllib material.mtl
usemtl material_0
v 0.00152500 -0.01227600 0.00316000
v 0.00152500 -0.01227600 0.00316000
v 0.00152500 -0.01227600 0.00316000
v 0.00068600 -0.01288200 0.00316000
v 0.00068600 -0.01288200 0.00316000
v -0.00034400 -0.01298700 0.00316000
v -0.00034400 -0.01298700 0.00316000
v -0.00128800 -0.01256300 0.00316000
v -0.00128800 -0.01256300 0.00316000
v -0.00189400 -0.01172300 0.00316000
v -0.00189400 -0.01172300 0.00316000
v -0.00200000 -0.01069400 0.00316000
v -0.00200000 -0.01069400 0.00316000
v -0.00157600 -0.00974900 0.00316000
v -0.00157600 -0.00974900 0.00316000
v -0.00157600 -0.00974900 0.00316000
v -0.00157600 -0.00974900 0.00116000
v -0.00157600 -0.00974900 0.00116000
v -0.00157600 -0.00974900 0.00116000
v -0.00200000 -0.01069400 0.00116000
v -0.00200000 -0.01069400 0.00116000
v -0.00189400 -0.01172300 0.00116000
v -0.00189400 -0.01172300 0.00116000
v -0.00128800 -0.01256300 0.00116000
v -0.00128800 -0.01256300 0.00116000
v -0.00034400 -0.01298700 0.00116000
v -0.00034400 -0.01298700 0.00116000
v 0.00068600 -0.01288200 0.00116000
v 0.00068600 -0.01288200 0.00116000
v 0.00152500 -0.01227600 0.00116000
v 0.00152500 -0.01227600 0.00116000
v 0.00152500 -0.01227600 0.00116000
vn 63.16575100 77.52475700 -0.00000000
vn 77.52475700 -63.16575100 -0.00000000
vn 0.00000000 0.00000000 100.00000000
vn 35.55553300 -93.46552300 -0.00000000
vn 0.00000000 0.00000000 100.00000000
vn 0.00000000 0.00000000 100.00000000
vn -15.94076700 -98.72128400 0.00000000
vn 0.00000000 0.00000000 100.00000000
vn -63.16575100 -77.52475700 0.00000000
vn -93.46552300 -35.55553300 0.00000000
vn 0.00000000 0.00000000 100.00000000
vn 0.00000000 0.00000000 100.00000000
vn -98.72128400 15.94076700 0.00000000
vn 0.00000000 0.00000000 100.00000000
vn -77.52475700 63.16575100 0.00000000
vn 63.16575100 77.52475700 -0.00000000
vn 63.16575100 77.52475700 -0.00000000
vn -0.00000000 -0.00000000 -100.00000000
vn -77.52475700 63.16575100 0.00000000
vn -0.00000000 -0.00000000 -100.00000000
vn -98.72128400 15.94076700 0.00000000
vn -0.00000000 -0.00000000 -100.00000000
vn -93.46552300 -35.55553300 0.00000000
vn -0.00000000 -0.00000000 -100.00000000
vn -63.16575100 -77.52475700 0.00000000
vn -15.94076700 -98.72128400 0.00000000
vn -0.00000000 -0.00000000 -100.00000000
vn -0.00000000 -0.00000000 -100.00000000
vn 35.55553300 -93.46552300 -0.00000000
vn 77.52475700 -63.16575100 -0.00000000
vn -0.00000000 -0.00000000 -100.00000000
vn 63.16575100 77.52475700 -0.00000000
vt -0.20000000 -0.00000000
vt -0.20000000 -0.00000000
vt 0.20000000 -0.00000000
vt -0.20000000 -0.10472000
vt 0.17320500 -0.10000000
vt 0.10000000 -0.17320500
vt -0.20000000 -0.20944000
vt 0.00000000 -0.20000000
vt -0.20000000 -0.31415900
vt -0.20000000 -0.41887900
vt -0.10000000 -0.17320500
vt -0.17320500 -0.10000000
vt -0.20000000 -0.52359900
vt -0.20000000 0.00000000
vt -0.20000000 -0.62831900
vt -0.20000000 0.40000000
vt -0.00000000 0.40000000
vt 0.20000000 -0.00000000
vt -0.00000000 -0.62831900
vt 0.17320500 -0.10000000
vt 0.00000000 -0.52359900
vt 0.10000000 -0.17320500
vt -0.00000000 -0.41887900
vt -0.00000000 -0.20000000
vt 0.00000000 -0.31415900
vt -0.00000000 -0.20944000
vt -0.10000000 -0.17320500
vt -0.17320500 -0.10000000
vt -0.00000000 -0.10472000
vt -0.00000000 -0.00000000
vt -0.20000000 -0.00000000
vt -0.00000000 0.00000000
f 30/30/30 2/2/2 29/29/29
f 29/29/29 2/2/2 4/4/4
f 29/29/29 4/4/4 26/26/26
f 26/26/26 4/4/4 7/7/7
f 26/26/26 7/7/7 25/25/25
f 25/25/25 7/7/7 9/9/9
f 25/25/25 9/9/9 23/23/23
f 23/23/23 9/9/9 10/10/10
f 23/23/23 10/10/10 21/21/21
f 21/21/21 10/10/10 13/13/13
f 21/21/21 13/13/13 19/19/19
f 19/19/19 13/13/13 15/15/15
f 1/1/1 32/32/32 16/16/16
f 16/16/16 32/32/32 17/17/17
f 18/18/18 31/31/31 20/20/20
f 20/20/20 31/31/31 28/28/28
f 20/20/20 28/28/28 22/22/22
f 22/22/22 28/28/28 27/27/27
f 22/22/22 27/27/27 24/24/24
f 3/3/3 14/14/14 5/5/5
f 5/5/5 14/14/14 12/12/12
f 5/5/5 12/12/12 6/6/6
f 6/6/6 12/12/12 11/11/11
f 6/6/6 11/11/11 8/8/8

