mtllib material.mtl
usemtl material_0
v -0.01650000 -0.00702000 -0.06340000
v -0.01650000 -0.00702000 -0.06340000
v -0.01650000 -0.00702000 -0.06340000
v -0.01650000 -0.04302000 -0.06340000
v -0.01650000 -0.04302000 -0.06340000
v -0.01650000 -0.04302000 -0.06340000
v -0.01650000 -0.04302000 -0.06140000
v -0.01650000 -0.04302000 -0.06140000
v -0.01650000 -0.04302000 -0.06140000
v -0.01650000 -0.00702000 -0.06140000
v -0.01650000 -0.00702000 -0.06140000
v -0.01650000 -0.00702000 -0.06140000
v 0.01108100 0.00194100 -0.06140000
v 0.01108100 0.00194100 -0.06140000
v 0.01108100 0.00194100 -0.06140000
v 0.01108100 0.00194100 -0.06340000
v 0.01108100 0.00194100 -0.06340000
v 0.01108100 0.00194100 -0.06340000
v 0.01539800 -0.01134500 -0.06140000
v 0.01539800 -0.01134500 -0.06140000
v 0.01539800 -0.01134500 -0.06140000
v 0.01539800 -0.01134500 -0.06340000
v 0.01539800 -0.01134500 -0.06340000
v 0.01539800 -0.01134500 -0.06340000
v 0.00750000 -0.04302000 -0.06140000
v 0.00750000 -0.04302000 -0.06140000
v 0.00750000 -0.04302000 -0.06140000
v 0.00750000 -0.04302000 -0.06340000
v 0.00750000 -0.04302000 -0.06340000
v 0.00750000 -0.04302000 -0.06340000
v -0.00287000 -0.01043800 -0.06140000
v -0.00287000 -0.01043800 -0.06140000
v -0.00287000 -0.01043800 -0.06140000
v -0.01276800 -0.04302000 -0.06140000
v -0.01276800 -0.04302000 -0.06140000
v -0.01276800 -0.04302000 -0.06140000
v -0.01276800 -0.04302000 -0.06340000
v -0.01276800 -0.04302000 -0.06340000
v -0.01276800 -0.04302000 -0.06340000
v -0.00287000 -0.01043800 -0.06340000
v -0.00287000 -0.01043800 -0.06340000
v -0.00287000 -0.01043800 -0.06340000
v 0.00300000 -0.04302000 -0.06140000
v 0.00300000 -0.04302000 -0.06140000
v 0.00300000 -0.04302000 -0.06140000
v 0.00300000 -0.01131000 -0.06140000
v 0.00300000 -0.01131000 -0.06140000
v 0.00300000 -0.01131000 -0.06140000
v 0.00300000 -0.01131000 -0.06340000
v 0.00300000 -0.01131000 -0.06340000
v 0.00300000 -0.01131000 -0.06340000
v 0.00300000 -0.04302000 -0.06340000
v 0.00300000 -0.04302000 -0.06340000
v 0.00300000 -0.04302000 -0.06340000
v -0.00215500 -0.00922300 -0.06140000
v -0.00215500 -0.00922300 -0.06140000
v -0.00096400 -0.00846900 -0.06140000
v -0.00096400 -0.00846900 -0.06140000
v 0.00044100 -0.00834300 -0.06140000
v 0.00044100 -0.00834300 -0.06140000
v 0.00174800 -0.00887200 -0.06140000
v 0.00174800 -0.00887200 -0.06140000
v 0.00266900 -0.00993900 -0.06140000
v 0.00266900 -0.00993900 -0.06140000
v 0.00266900 -0.00993900 -0.06340000
v 0.00266900 -0.00993900 -0.06340000
v 0.00174800 -0.00887200 -0.06340000
v 0.00174800 -0.00887200 -0.06340000
v 0.00044100 -0.00834300 -0.06340000
v 0.00044100 -0.00834300 -0.06340000
v -0.00096400 -0.00846900 -0.06340000
v -0.00096400 -0.00846900 -0.06340000
v -0.00215500 -0.00922300 -0.06340000
v -0.00215500 -0.00922300 -0.06340000
vn 0.00000000 -0.00000000 -100.00000000
vn -100.00000000 0.00000000 -0.00000000
vn -30.90169900 95.10565200 -0.00000000
vn -100.00000000 0.00000000 -0.00000000
vn 0.00000000 -0.00000000 -100.00000000
vn -0.00000000 -100.00000000 0.00000000
vn -0.00000000 -100.00000000 0.00000000
vn -0.00000000 0.00000000 100.00000000
vn -100.00000000 0.00000000 -0.00000000
vn -0.00000000 0.00000000 100.00000000
vn -100.00000000 0.00000000 -0.00000000
vn -30.90169900 95.10565200 -0.00000000
vn 95.10565200 30.90169900 0.00000000
vn -30.90169900 95.10565200 -0.00000000
vn -0.00000000 0.00000000 100.00000000
vn 95.10565200 30.90169900 0.00000000
vn 0.00000000 -0.00000000 -100.00000000
vn -30.90169900 95.10565200 -0.00000000
vn 97.02957300 -24.19219000 0.00000000
vn 95.10565200 30.90169900 0.00000000
vn -0.00000000 0.00000000 100.00000000
vn 0.00000000 -0.00000000 -100.00000000
vn 97.02957300 -24.19219000 0.00000000
vn 95.10565200 30.90169900 0.00000000
vn -0.00000000 0.00000000 100.00000000
vn -0.00000000 -100.00000000 0.00000000
vn 97.02957300 -24.19219000 0.00000000
vn 97.02957300 -24.19219000 0.00000000
vn -0.00000000 -100.00000000 0.00000000
vn 0.00000000 -0.00000000 -100.00000000
vn -0.00000000 0.00000000 100.00000000
vn 95.68257800 -29.06620500 0.00000000
vn 95.68257800 -29.06620500 0.00000000
vn 95.68257800 -29.06620500 0.00000000
vn -0.00000000 -100.00000000 0.00000000
vn -0.00000000 0.00000000 100.00000000
vn 0.00000000 -0.00000000 -100.00000000
vn -0.00000000 -100.00000000 0.00000000
vn 95.68257800 -29.06620500 0.00000000
vn 95.68257800 -29.06620500 0.00000000
vn 0.00000000 -0.00000000 -100.00000000
vn 95.68257800 -29.06620500 0.00000000
vn -0.00000000 0.00000000 100.00000000
vn -0.00000000 -100.00000000 0.00000000
vn -100.00000000 0.00000000 -0.00000000
vn -100.00000000 0.00000000 -0.00000000
vn -100.00000000 0.00000000 -0.00000000
vn -0.00000000 0.00000000 100.00000000
vn -100.00000000 0.00000000 -0.00000000
vn 0.00000000 -0.00000000 -100.00000000
vn -100.00000000 0.00000000 -0.00000000
vn 0.00000000 -0.00000000 -100.00000000
vn -0.00000000 -100.00000000 0.00000000
vn -100.00000000 0.00000000 -0.00000000
vn -0.00000000 0.00000000 100.00000000
vn 71.83530200 -69.56787600 0.00000000
vn 32.11904900 -94.70146100 0.00000000
vn -0.00000000 0.00000000 100.00000000
vn -14.69255300 -98.91475600 -0.00000000
vn -0.00000000 0.00000000 100.00000000
vn -58.25845500 -81.27701000 -0.00000000
vn -0.00000000 0.00000000 100.00000000
vn -0.00000000 0.00000000 100.00000000
vn -88.95461100 -45.68454100 -0.00000000
vn -88.95461100 -45.68454100 -0.00000000
vn 0.00000000 -0.00000000 -100.00000000
vn -58.25845500 -81.27701000 -0.00000000
vn 0.00000000 -0.00000000 -100.00000000
vn -14.69255300 -98.91475600 -0.00000000
vn 0.00000000 -0.00000000 -100.00000000
vn 32.11904900 -94.70146100 0.00000000
vn 0.00000000 -0.00000000 -100.00000000
vn 71.83530200 -69.56787600 0.00000000
vn 0.00000000 -0.00000000 -100.00000000
vt -1.65000000 -0.42900000
vt 0.20000000 0.00000000
vt 0.20000000 2.90000000
vt 0.20000000 3.60000000
vt -1.65000000 3.17100000
vt -0.20000000 -0.00000000
vt -0.00000000 0.00000000
vt 1.65000000 3.17100000
vt -0.00000000 3.60000000
vt 1.65000000 -0.42900000
vt 0.00000000 -0.00000000
vt 0.00000000 2.90000000
vt 0.00000000 -1.39698500
vt -0.00000000 -0.00000000
vt -1.10806400 -1.32514900
vt -0.20000000 -1.39698500
vt 1.10806400 -1.32514900
vt 0.20000000 0.00000000
vt -0.00000000 -3.26450800
vt -0.00000000 0.00000000
vt -1.53975600 0.00346200
vt 1.53975600 0.00346200
vt -0.20000000 -3.26450800
vt -0.20000000 0.00000000
vt -0.75000000 3.17100000
vt 0.00000000 -2.40000000
vt -0.00000000 -0.00000000
vt -0.20000000 0.00000000
vt -0.20000000 -2.40000000
vt 0.75000000 3.17100000
vt 0.28704800 -0.08719900
vt 0.20000000 -0.00000000
vt 0.20000000 -0.08847600
vt 0.20000000 3.40521600
vt 0.00000000 -0.37318500
vt 1.27681500 3.17100000
vt -1.27681500 3.17100000
vt -0.20000000 -0.37318500
vt -0.00000000 3.40521600
vt -0.00000000 -0.00000000
vt -0.28704800 -0.08719900
vt 0.00000000 -0.08847600
vt -0.30000000 3.17100000
vt -0.00000000 -1.95000000
vt -0.20000000 3.17100000
vt -0.20000000 -0.00000000
vt 0.20000000 -0.94247800
vt -0.30000000 -0.00000000
vt 0.00000000 -0.94247800
vt 0.30000000 -0.00000000
vt -0.00000000 0.00000000
vt 0.30000000 3.17100000
vt -0.20000000 -1.95000000
vt 0.00000000 3.17100000
vt 0.21550600 -0.20870400
vt 0.20000000 -0.23080900
vt 0.20000000 -0.37314300
vt 0.09635700 -0.28410400
vt 0.20000000 -0.51547700
vt -0.04407800 -0.29674400
vt 0.20000000 -0.65781000
vt -0.17477500 -0.24383100
vt -0.26686400 -0.13705400
vt 0.20000000 -0.80014400
vt -0.00000000 -0.80014400
vt 0.26686400 -0.13705400
vt 0.00000000 -0.65781000
vt 0.17477500 -0.24383100
vt 0.00000000 -0.51547700
vt 0.04407800 -0.29674400
vt -0.00000000 -0.37314300
vt -0.09635700 -0.28410400
vt -0.00000000 -0.23080900
vt -0.21550600 -0.20870400
f 4/4/4 9/9/9 2/2/2
f 2/2/2 9/9/9 11/11/11
f 3/3/3 12/12/12 18/18/18
f 18/18/18 12/12/12 14/14/14
f 16/16/16 13/13/13 24/24/24
f 24/24/24 13/13/13 20/20/20
f 23/23/23 19/19/19 28/28/28
f 28/28/28 19/19/19 27/27/27
f 34/34/34 39/39/39 32/32/32
f 32/32/32 39/39/39 40/40/40
f 46/46/46 51/51/51 45/45/45
f 45/45/45 51/51/51 54/54/54
f 44/44/44 53/53/53 26/26/26
f 26/26/26 53/53/53 29/29/29
f 38/38/38 35/35/35 6/6/6
f 6/6/6 35/35/35 7/7/7
f 8/8/8 36/36/36 10/10/10
f 10/10/10 36/36/36 31/31/31
f 10/10/10 31/31/31 55/55/55
f 55/55/55 58/58/58 10/10/10
f 10/10/10 58/58/58 15/15/15
f 15/15/15 58/58/58 60/60/60
f 15/15/15 60/60/60 62/62/62
f 62/62/62 63/63/63 15/15/15
f 15/15/15 63/63/63 21/21/21
f 21/21/21 63/63/63 48/48/48
f 21/21/21 48/48/48 25/25/25
f 25/25/25 48/48/48 43/43/43
f 5/5/5 1/1/1 37/37/37
f 37/37/37 1/1/1 41/41/41
f 41/41/41 1/1/1 74/74/74
f 74/74/74 1/1/1 72/72/72
f 72/72/72 1/1/1 17/17/17
f 72/72/72 17/17/17 70/70/70
f 70/70/70 17/17/17 68/68/68
f 68/68/68 17/17/17 66/66/66
f 66/66/66 17/17/17 22/22/22
f 66/66/66 22/22/22 50/50/50
f 50/50/50 22/22/22 30/30/30
f 50/50/50 30/30/30 52/52/52
f 49/49/49 47/47/47 65/65/65
f 65/65/65 47/47/47 64/64/64
f 65/65/65 64/64/64 67/67/67
f 67/67/67 64/64/64 61/61/61
f 67/67/67 61/61/61 69/69/69
f 69/69/69 61/61/61 59/59/59
f 69/69/69 59/59/59 71/71/71
f 71/71/71 59/59/59 57/57/57
f 71/71/71 57/57/57 73/73/73
f 73/73/73 57/57/57 56/56/56
f 73/73/73 56/56/56 42/42/42
f 42/42/42 56/56/56 33/33/33

