mtllib material.mtl
usemtl material_0
v 0.00445000 -0.03150100 0.02810000
v 0.00445000 -0.03150100 0.02810000
v 0.00445000 -0.03150100 0.02810000
v 0.00445000 -0.03150100 0.01460000
v 0.00445000 -0.03150100 0.01460000
v 0.00445000 -0.03150100 0.01460000
v 0.00445000 -0.03300100 0.01419800
v 0.00445000 -0.03300100 0.01419800
v 0.00445000 -0.03409900 0.01310000
v 0.00445000 -0.03409900 0.01310000
v 0.00445000 -0.03450100 0.01160000
v 0.00445000 -0.03450100 0.01160000
v 0.00445000 -0.03450100 0.01160000
v 0.00445000 -0.06020100 0.01160000
v 0.00445000 -0.06020100 0.01160000
v 0.00445000 -0.06020100 0.01160000
v 0.00445000 -0.06020100 0.01364200
v 0.00445000 -0.06020100 0.01364200
v 0.00445000 -0.06020100 0.01364200
v 0.00445000 -0.05729200 0.01604800
v 0.00445000 -0.05729200 0.01604800
v 0.00445000 -0.05568500 0.01946300
v 0.00445000 -0.05568500 0.01946300
v 0.00445000 -0.05568500 0.02323700
v 0.00445000 -0.05568500 0.02323700
v 0.00445000 -0.05729200 0.02665200
v 0.00445000 -0.05729200 0.02665200
v 0.00445000 -0.06020100 0.02905800
v 0.00445000 -0.06020100 0.02905800
v 0.00445000 -0.06020100 0.02905800
v 0.00445000 -0.06020100 0.03110000
v 0.00445000 -0.06020100 0.03110000
v 0.00445000 -0.06020100 0.03110000
v 0.00445000 -0.03450200 0.03110000
v 0.00445000 -0.03450200 0.03110000
v 0.00445000 -0.03450200 0.03110000
v 0.00445000 -0.03410000 0.02959900
v 0.00445000 -0.03410000 0.02959900
v 0.00445000 -0.03300100 0.02850100
v 0.00445000 -0.03300100 0.02850100
v 0.00550200 -0.03150100 0.02810000
v 0.00550200 -0.03150100 0.02810000
v 0.00550200 -0.03150100 0.02810000
v 0.00550200 -0.03300100 0.02850100
v 0.00550200 -0.03300100 0.02850100
v 0.00550200 -0.03410000 0.02959900
v 0.00550200 -0.03410000 0.02959900
v 0.00550200 -0.03450200 0.03110000
v 0.00550200 -0.03450200 0.03110000
v 0.00550200 -0.03450200 0.03110000
v 0.00550200 -0.06020100 0.03110000
v 0.00550200 -0.06020100 0.03110000
v 0.00550200 -0.06020100 0.03110000
v 0.00550200 -0.06020100 0.02905800
v 0.00550200 -0.06020100 0.02905800
v 0.00550200 -0.06020100 0.02905800
v 0.00550200 -0.05729200 0.02665200
v 0.00550200 -0.05729200 0.02665200
v 0.00550200 -0.05568500 0.02323700
v 0.00550200 -0.05568500 0.02323700
v 0.00550200 -0.05568500 0.01946300
v 0.00550200 -0.05568500 0.01946300
v 0.00550200 -0.05729200 0.01604800
v 0.00550200 -0.05729200 0.01604800
v 0.00550200 -0.06020100 0.01364200
v 0.00550200 -0.06020100 0.01364200
v 0.00550200 -0.06020100 0.01364200
v 0.00550200 -0.06020100 0.01160000
v 0.00550200 -0.06020100 0.01160000
v 0.00550200 -0.06020100 0.01160000
v 0.00550200 -0.03450100 0.01160000
v 0.00550200 -0.03450100 0.01160000
v 0.00550200 -0.03450100 0.01160000
v 0.00550200 -0.03409900 0.01310000
v 0.00550200 -0.03409900 0.01310000
v 0.00550200 -0.03300100 0.01419800
v 0.00550200 -0.03300100 0.01419800
v 0.00550200 -0.03150100 0.01460000
v 0.00550200 -0.03150100 0.01460000
v 0.00550200 -0.03150100 0.01460000
vn -100.00000000 -0.00000000 0.00000000
vn -0.00000000 100.00000000 -0.00000000
vn 0.00000000 0.00313200 100.00000000
vn -0.00000000 100.00000000 -0.00000000
vn -100.00000000 -0.00000000 0.00000000
vn -0.00000000 -0.02046500 -99.99999800
vn -0.00000000 49.99409300 -86.60595100
vn -100.00000000 -0.00000000 0.00000000
vn -100.00000000 -0.00000000 0.00000000
vn -0.00000000 86.60595200 -49.99409100
vn -100.00000000 -0.00000000 0.00000000
vn -0.00000000 -0.00000000 -100.00000000
vn -0.00000000 99.99999800 0.02046700
vn 0.00000000 -100.00000000 0.00000000
vn -0.00000000 -0.00000000 -100.00000000
vn -100.00000000 -0.00000000 0.00000000
vn 0.00000000 -45.36815500 89.11638800
vn -100.00000000 -0.00000000 0.00000000
vn 0.00000000 -100.00000000 0.00000000
vn -100.00000000 -0.00000000 0.00000000
vn 0.00000000 -79.00274900 61.30714200
vn -100.00000000 -0.00000000 0.00000000
vn 0.00000000 -97.59016300 21.82109100
vn -100.00000000 -0.00000000 0.00000000
vn -0.00000000 -97.59016300 -21.82109100
vn -100.00000000 -0.00000000 0.00000000
vn -0.00000000 -79.00274900 -61.30714200
vn 0.00000000 -100.00000000 0.00000000
vn -0.00000000 -45.36815500 -89.11638800
vn -100.00000000 -0.00000000 0.00000000
vn 0.00000000 -100.00000000 0.00000000
vn 0.00000000 0.00000000 100.00000000
vn -100.00000000 -0.00000000 0.00000000
vn -0.00000000 99.99999300 0.03646300
vn -100.00000000 -0.00000000 0.00000000
vn 0.00000000 0.00000000 100.00000000
vn 0.00000000 86.59090600 50.02014600
vn -100.00000000 -0.00000000 0.00000000
vn 0.00000000 49.99128200 86.60757300
vn -100.00000000 -0.00000000 0.00000000
vn 0.00000000 0.00313200 100.00000000
vn -0.00000000 100.00000000 -0.00000000
vn 100.00000000 0.00000000 -0.00000000
vn 0.00000000 49.99128200 86.60757300
vn 100.00000000 0.00000000 -0.00000000
vn 0.00000000 86.59090600 50.02014600
vn 100.00000000 0.00000000 -0.00000000
vn 0.00000000 0.00000000 100.00000000
vn 100.00000000 0.00000000 -0.00000000
vn -0.00000000 99.99999300 0.03646300
vn 0.00000000 -100.00000000 0.00000000
vn 0.00000000 0.00000000 100.00000000
vn 100.00000000 0.00000000 -0.00000000
vn 0.00000000 -100.00000000 0.00000000
vn -0.00000000 -45.36815500 -89.11638800
vn 100.00000000 0.00000000 -0.00000000
vn 100.00000000 0.00000000 -0.00000000
vn -0.00000000 -79.00274900 -61.30714200
vn -0.00000000 -97.59016300 -21.82109100
vn 100.00000000 0.00000000 -0.00000000
vn 0.00000000 -97.59016300 21.82109100
vn 100.00000000 0.00000000 -0.00000000
vn 0.00000000 -79.00274900 61.30714200
vn 100.00000000 0.00000000 -0.00000000
vn 0.00000000 -45.36815500 89.11638800
vn 0.00000000 -100.00000000 0.00000000
vn 100.00000000 0.00000000 -0.00000000
vn 0.00000000 -100.00000000 0.00000000
vn -0.00000000 -0.00000000 -100.00000000
vn 100.00000000 0.00000000 -0.00000000
vn 100.00000000 0.00000000 -0.00000000
vn -0.00000000 -0.00000000 -100.00000000
vn -0.00000000 99.99999800 0.02046700
vn -0.00000000 86.60595200 -49.99409100
vn 100.00000000 0.00000000 -0.00000000
vn 100.00000000 0.00000000 -0.00000000
vn -0.00000000 49.99409300 -86.60595100
vn -0.00000000 -0.02046500 -99.99999800
vn -0.00000000 100.00000000 -0.00000000
vn 100.00000000 0.00000000 -0.00000000
vt -0.00000000 -0.00000000
vt 0.00000000 -0.00000000
vt 0.00000000 -0.47129200
vt 0.00000000 1.35000000
vt 0.00000000 1.35000000
vt -0.00000000 -0.00000000
vt 0.00000000 -0.15708800
vt -0.15001300 1.39017400
vt -0.25982600 1.49998700
vt 0.00000000 -0.31417700
vt -0.30000000 1.65000000
vt 0.00000000 0.00000000
vt -0.00000000 -0.47126500
vt 0.00000000 -0.00000000
vt -0.00000000 2.57000000
vt -2.87000000 1.65000000
vt 0.00000000 0.00000000
vt -2.87000000 1.44570000
vt 0.00000000 -0.20430000
vt -2.57910100 1.20518300
vt 0.00000000 -0.38051400
vt -2.41834200 0.86367600
vt -0.00000000 -0.76102800
vt -2.41834200 0.48622400
vt 0.00000000 -1.14154200
vt -2.57910100 0.14471700
vt 0.00000000 -1.52205700
vt 0.00000000 -0.00000000
vt -0.00000000 -1.90257100
vt -2.87000000 -0.09580000
vt -0.00000000 -0.20420000
vt 0.00000000 0.00000000
vt -2.87000000 -0.30000000
vt -0.00000000 0.00000000
vt -0.30010000 -0.30000000
vt -0.00000000 -2.56990000
vt 0.00000000 -0.15709700
vt -0.25985800 -0.14999400
vt 0.00000000 -0.31419500
vt -0.15001900 -0.04019200
vt -0.10523300 -0.47129200
vt 0.10523300 -0.00000000
vt 0.00000000 -0.00000000
vt -0.10523300 -0.31419500
vt 0.15001900 -0.04019200
vt -0.10523300 -0.15709700
vt 0.25985800 -0.14999400
vt -0.10523300 -2.56990000
vt 0.30010000 -0.30000000
vt -0.10523300 0.00000000
vt -0.10523300 -0.20420000
vt -0.10523300 0.00000000
vt 2.87000000 -0.30000000
vt -0.10523300 0.00000000
vt -0.10523300 -1.90257100
vt 2.87000000 -0.09580000
vt 2.57910100 0.14471700
vt -0.10523300 -1.52205700
vt -0.10523300 -1.14154200
vt 2.41834200 0.48622400
vt -0.10523300 -0.76102800
vt 2.41834200 0.86367600
vt -0.10523300 -0.38051400
vt 2.57910100 1.20518300
vt -0.10523300 0.00000000
vt -0.10523300 -0.20430000
vt 2.87000000 1.44570000
vt -0.10523300 0.00000000
vt 0.10523300 2.57000000
vt 2.87000000 1.65000000
vt 0.30000000 1.65000000
vt 0.10523300 0.00000000
vt -0.10523300 -0.47126500
vt -0.10523300 -0.31417700
vt 0.25982600 1.49998700
vt 0.15001300 1.39017400
vt -0.10523300 -0.15708800
vt -0.10523300 -0.00000000
vt 0.10523300 1.35000000
vt -0.00000000 1.35000000
f 1/1/1 5/5/5 40/40/40
f 40/40/40 5/5/5 8/8/8
f 40/40/40 8/8/8 22/22/22
f 22/22/22 8/8/8 9/9/9
f 22/22/22 9/9/9 20/20/20
f 20/20/20 9/9/9 11/11/11
f 20/20/20 11/11/11 16/16/16
f 16/16/16 18/18/18 20/20/20
f 22/22/22 24/24/24 40/40/40
f 40/40/40 24/24/24 38/38/38
f 38/38/38 24/24/24 26/26/26
f 38/38/38 26/26/26 35/35/35
f 35/35/35 26/26/26 33/33/33
f 33/33/33 26/26/26 30/30/30
f 43/43/43 45/45/45 80/80/80
f 80/80/80 45/45/45 76/76/76
f 76/76/76 45/45/45 62/62/62
f 76/76/76 62/62/62 75/75/75
f 75/75/75 62/62/62 64/64/64
f 75/75/75 64/64/64 71/71/71
f 71/71/71 64/64/64 70/70/70
f 70/70/70 64/64/64 67/67/67
f 62/62/62 45/45/45 60/60/60
f 60/60/60 45/45/45 47/47/47
f 60/60/60 47/47/47 57/57/57
f 57/57/57 47/47/47 49/49/49
f 57/57/57 49/49/49 53/53/53
f 53/53/53 56/56/56 57/57/57
f 2/2/2 42/42/42 4/4/4
f 4/4/4 42/42/42 79/79/79
f 6/6/6 78/78/78 7/7/7
f 7/7/7 78/78/78 77/77/77
f 7/7/7 77/77/77 10/10/10
f 10/10/10 77/77/77 74/74/74
f 10/10/10 74/74/74 13/13/13
f 13/13/13 74/74/74 73/73/73
f 12/12/12 72/72/72 15/15/15
f 15/15/15 72/72/72 69/69/69
f 14/14/14 68/68/68 19/19/19
f 19/19/19 68/68/68 66/66/66
f 17/17/17 65/65/65 21/21/21
f 21/21/21 65/65/65 63/63/63
f 21/21/21 63/63/63 23/23/23
f 23/23/23 63/63/63 61/61/61
f 23/23/23 61/61/61 25/25/25
f 25/25/25 61/61/61 59/59/59
f 25/25/25 59/59/59 27/27/27
f 27/27/27 59/59/59 58/58/58
f 27/27/27 58/58/58 29/29/29
f 29/29/29 58/58/58 55/55/55
f 28/28/28 54/54/54 31/31/31
f 31/31/31 54/54/54 51/51/51
f 32/32/32 52/52/52 36/36/36
f 36/36/36 52/52/52 48/48/48
f 34/34/34 50/50/50 37/37/37
f 37/37/37 50/50/50 46/46/46
f 37/37/37 46/46/46 39/39/39
f 39/39/39 46/46/46 44/44/44
f 39/39/39 44/44/44 3/3/3
f 3/3/3 44/44/44 41/41/41

