mtllib material.mtl
usemtl material_0
v 0.01650000 -0.04302000 -0.06340000
v 0.01650000 -0.04302000 -0.06340000
v 0.01650000 -0.04302000 -0.06340000
v 0.01650000 -0.00702000 -0.06340000
v 0.01650000 -0.00702000 -0.06340000
v 0.01650000 -0.00702000 -0.06340000
v 0.01650000 -0.00702000 -0.06140000
v 0.01650000 -0.00702000 -0.06140000
v 0.01650000 -0.00702000 -0.06140000
v 0.01650000 -0.04302000 -0.06140000
v 0.01650000 -0.04302000 -0.06140000
v 0.01650000 -0.04302000 -0.06140000
v -0.01108100 0.00194100 -0.06340000
v -0.01108100 0.00194100 -0.06340000
v -0.01108100 0.00194100 -0.06340000
v -0.01108100 0.00194100 -0.06140000
v -0.01108100 0.00194100 -0.06140000
v -0.01108100 0.00194100 -0.06140000
v -0.01539800 -0.01134500 -0.06340000
v -0.01539800 -0.01134500 -0.06340000
v -0.01539800 -0.01134500 -0.06340000
v -0.01539800 -0.01134500 -0.06140000
v -0.01539800 -0.01134500 -0.06140000
v -0.01539800 -0.01134500 -0.06140000
v -0.00750000 -0.04302000 -0.06340000
v -0.00750000 -0.04302000 -0.06340000
v -0.00750000 -0.04302000 -0.06340000
v -0.00750000 -0.04302000 -0.06140000
v -0.00750000 -0.04302000 -0.06140000
v -0.00750000 -0.04302000 -0.06140000
v 0.01276800 -0.04302000 -0.06140000
v 0.01276800 -0.04302000 -0.06140000
v 0.01276800 -0.04302000 -0.06140000
v 0.00287000 -0.01043800 -0.06140000
v 0.00287000 -0.01043800 -0.06140000
v 0.00287000 -0.01043800 -0.06140000
v 0.00287000 -0.01043800 -0.06340000
v 0.00287000 -0.01043800 -0.06340000
v 0.00287000 -0.01043800 -0.06340000
v 0.01276800 -0.04302000 -0.06340000
v 0.01276800 -0.04302000 -0.06340000
v 0.01276800 -0.04302000 -0.06340000
v -0.00300000 -0.01131000 -0.06140000
v -0.00300000 -0.01131000 -0.06140000
v -0.00300000 -0.01131000 -0.06140000
v -0.00300000 -0.04302000 -0.06140000
v -0.00300000 -0.04302000 -0.06140000
v -0.00300000 -0.04302000 -0.06140000
v -0.00300000 -0.04302000 -0.06340000
v -0.00300000 -0.04302000 -0.06340000
v -0.00300000 -0.04302000 -0.06340000
v -0.00300000 -0.01131000 -0.06340000
v -0.00300000 -0.01131000 -0.06340000
v -0.00300000 -0.01131000 -0.06340000
v -0.00266900 -0.00993900 -0.06140000
v -0.00266900 -0.00993900 -0.06140000
v -0.00174800 -0.00887200 -0.06140000
v -0.00174800 -0.00887200 -0.06140000
v -0.00044100 -0.00834300 -0.06140000
v -0.00044100 -0.00834300 -0.06140000
v 0.00096400 -0.00846900 -0.06140000
v 0.00096400 -0.00846900 -0.06140000
v 0.00215500 -0.00922300 -0.06140000
v 0.00215500 -0.00922300 -0.06140000
v 0.00215500 -0.00922300 -0.06340000
v 0.00215500 -0.00922300 -0.06340000
v 0.00096400 -0.00846900 -0.06340000
v 0.00096400 -0.00846900 -0.06340000
v -0.00044100 -0.00834300 -0.06340000
v -0.00044100 -0.00834300 -0.06340000
v -0.00174800 -0.00887200 -0.06340000
v -0.00174800 -0.00887200 -0.06340000
v -0.00266900 -0.00993900 -0.06340000
v -0.00266900 -0.00993900 -0.06340000
vn 100.00000000 -0.00000000 -0.00000000
vn -0.00000000 -0.00000000 -100.00000000
vn -0.00000000 -100.00000000 0.00000000
vn 100.00000000 -0.00000000 -0.00000000
vn -0.00000000 -0.00000000 -100.00000000
vn 30.90169900 95.10565200 -0.00000000
vn 100.00000000 -0.00000000 -0.00000000
vn 30.90169900 95.10565200 -0.00000000
vn 0.00000000 0.00000000 100.00000000
vn -0.00000000 -100.00000000 0.00000000
vn 0.00000000 0.00000000 100.00000000
vn 100.00000000 -0.00000000 -0.00000000
vn -0.00000000 -0.00000000 -100.00000000
vn 30.90169900 95.10565200 -0.00000000
vn -95.10565200 30.90169900 -0.00000000
vn 0.00000000 0.00000000 100.00000000
vn 30.90169900 95.10565200 -0.00000000
vn -95.10565200 30.90169900 -0.00000000
vn -0.00000000 -0.00000000 -100.00000000
vn -95.10565200 30.90169900 -0.00000000
vn -97.02957300 -24.19219000 0.00000000
vn 0.00000000 0.00000000 100.00000000
vn -97.02957300 -24.19219000 0.00000000
vn -95.10565200 30.90169900 -0.00000000
vn -0.00000000 -0.00000000 -100.00000000
vn -97.02957300 -24.19219000 0.00000000
vn -0.00000000 -100.00000000 0.00000000
vn -97.02957300 -24.19219000 0.00000000
vn 0.00000000 0.00000000 100.00000000
vn -0.00000000 -100.00000000 0.00000000
vn 0.00000000 0.00000000 100.00000000
vn -0.00000000 -100.00000000 0.00000000
vn -95.68257800 -29.06620500 0.00000000
vn -95.68257800 -29.06620500 0.00000000
vn 0.00000000 0.00000000 100.00000000
vn -95.68257800 -29.06620500 0.00000000
vn -95.68257800 -29.06620500 0.00000000
vn -95.68257800 -29.06620500 0.00000000
vn -0.00000000 -0.00000000 -100.00000000
vn -95.68257800 -29.06620500 0.00000000
vn -0.00000000 -0.00000000 -100.00000000
vn -0.00000000 -100.00000000 0.00000000
vn 0.00000000 0.00000000 100.00000000
vn 100.00000000 -0.00000000 -0.00000000
vn 100.00000000 -0.00000000 -0.00000000
vn 100.00000000 -0.00000000 -0.00000000
vn -0.00000000 -100.00000000 0.00000000
vn 0.00000000 0.00000000 100.00000000
vn 100.00000000 -0.00000000 -0.00000000
vn -0.00000000 -0.00000000 -100.00000000
vn -0.00000000 -100.00000000 0.00000000
vn 100.00000000 -0.00000000 -0.00000000
vn -0.00000000 -0.00000000 -100.00000000
vn 100.00000000 -0.00000000 -0.00000000
vn 88.95461100 -45.68454100 0.00000000
vn 0.00000000 0.00000000 100.00000000
vn 58.25845500 -81.27701000 0.00000000
vn 0.00000000 0.00000000 100.00000000
vn 14.69255300 -98.91475600 0.00000000
vn 0.00000000 0.00000000 100.00000000
vn -32.11904900 -94.70146100 0.00000000
vn 0.00000000 0.00000000 100.00000000
vn 0.00000000 0.00000000 100.00000000
vn -71.83530200 -69.56787600 0.00000000
vn -71.83530200 -69.56787600 0.00000000
vn -0.00000000 -0.00000000 -100.00000000
vn -0.00000000 -0.00000000 -100.00000000
vn -32.11904900 -94.70146100 0.00000000
vn 14.69255300 -98.91475600 0.00000000
vn -0.00000000 -0.00000000 -100.00000000
vn -0.00000000 -0.00000000 -100.00000000
vn 58.25845500 -81.27701000 0.00000000
vn -0.00000000 -0.00000000 -100.00000000
vn 88.95461100 -45.68454100 0.00000000
vt -0.20000000 3.60000000
vt 1.65000000 3.17100000
vt 0.20000000 -0.00000000
vt -0.20000000 0.00000000
vt 1.65000000 -0.42900000
vt -0.20000000 2.90000000
vt -0.00000000 0.00000000
vt -0.00000000 2.90000000
vt -1.65000000 -0.42900000
vt -0.00000000 0.00000000
vt -1.65000000 3.17100000
vt 0.00000000 3.60000000
vt -1.10806400 -1.32514900
vt -0.20000000 -0.00000000
vt 0.20000000 -1.39698500
vt 1.10806400 -1.32514900
vt 0.00000000 0.00000000
vt -0.00000000 -1.39698500
vt -1.53975600 0.00346200
vt 0.20000000 0.00000000
vt 0.20000000 -3.26450800
vt 1.53975600 0.00346200
vt 0.00000000 -3.26450800
vt 0.00000000 0.00000000
vt -0.75000000 3.17100000
vt 0.20000000 -0.00000000
vt 0.20000000 -2.40000000
vt -0.00000000 0.00000000
vt 0.75000000 3.17100000
vt 0.00000000 -2.40000000
vt -1.27681500 3.17100000
vt 0.00000000 -0.37318500
vt -0.20000000 3.40521600
vt -0.20000000 -0.08847600
vt -0.28704800 -0.08719900
vt -0.20000000 -0.00000000
vt -0.00000000 0.00000000
vt 0.00000000 -0.08847600
vt 0.28704800 -0.08719900
vt -0.00000000 3.40521600
vt 1.27681500 3.17100000
vt 0.20000000 -0.37318500
vt 0.30000000 0.00000000
vt -0.20000000 -0.94247800
vt 0.20000000 -0.00000000
vt 0.20000000 3.17100000
vt 0.00000000 -1.95000000
vt 0.30000000 3.17100000
vt 0.00000000 3.17100000
vt -0.30000000 3.17100000
vt 0.20000000 -1.95000000
vt 0.00000000 -0.94247800
vt -0.30000000 0.00000000
vt 0.00000000 0.00000000
vt -0.20000000 -0.80014400
vt 0.26686400 -0.13705400
vt -0.20000000 -0.65781000
vt 0.17477500 -0.24383100
vt -0.20000000 -0.51547700
vt 0.04407800 -0.29674400
vt -0.20000000 -0.37314300
vt -0.09635700 -0.28410400
vt -0.21550600 -0.20870400
vt -0.20000000 -0.23080900
vt -0.00000000 -0.23080900
vt 0.21550600 -0.20870400
vt 0.09635700 -0.28410400
vt -0.00000000 -0.37314300
vt 0.00000000 -0.51547700
vt -0.04407800 -0.29674400
vt -0.17477500 -0.24383100
vt -0.00000000 -0.65781000
vt -0.26686400 -0.13705400
vt 0.00000000 -0.80014400
f 4/4/4 7/7/7 1/1/1
f 1/1/1 7/7/7 12/12/12
f 8/8/8 6/6/6 17/17/17
f 17/17/17 6/6/6 14/14/14
f 18/18/18 15/15/15 24/24/24
f 24/24/24 15/15/15 20/20/20
f 23/23/23 21/21/21 28/28/28
f 28/28/28 21/21/21 26/26/26
f 36/36/36 37/37/37 33/33/33
f 33/33/33 37/37/37 40/40/40
f 46/46/46 49/49/49 45/45/45
f 45/45/45 49/49/49 54/54/54
f 30/30/30 27/27/27 47/47/47
f 47/47/47 27/27/27 51/51/51
f 3/3/3 10/10/10 42/42/42
f 42/42/42 10/10/10 32/32/32
f 11/11/11 9/9/9 31/31/31
f 31/31/31 9/9/9 35/35/35
f 35/35/35 9/9/9 63/63/63
f 63/63/63 9/9/9 62/62/62
f 62/62/62 9/9/9 16/16/16
f 62/62/62 16/16/16 60/60/60
f 60/60/60 16/16/16 58/58/58
f 58/58/58 16/16/16 56/56/56
f 56/56/56 16/16/16 22/22/22
f 56/56/56 22/22/22 43/43/43
f 43/43/43 22/22/22 29/29/29
f 43/43/43 29/29/29 48/48/48
f 2/2/2 41/41/41 5/5/5
f 5/5/5 41/41/41 39/39/39
f 5/5/5 39/39/39 66/66/66
f 66/66/66 67/67/67 5/5/5
f 5/5/5 67/67/67 13/13/13
f 13/13/13 67/67/67 70/70/70
f 13/13/13 70/70/70 71/71/71
f 71/71/71 73/73/73 13/13/13
f 13/13/13 73/73/73 19/19/19
f 19/19/19 73/73/73 53/53/53
f 19/19/19 53/53/53 25/25/25
f 25/25/25 53/53/53 50/50/50
f 38/38/38 34/34/34 65/65/65
f 65/65/65 34/34/34 64/64/64
f 65/65/65 64/64/64 68/68/68
f 68/68/68 64/64/64 61/61/61
f 68/68/68 61/61/61 69/69/69
f 69/69/69 61/61/61 59/59/59
f 69/69/69 59/59/59 72/72/72
f 72/72/72 59/59/59 57/57/57
f 72/72/72 57/57/57 74/74/74
f 74/74/74 57/57/57 55/55/55
f 74/74/74 55/55/55 52/52/52
f 52/52/52 55/55/55 44/44/44

