mtllib material.mtl
usemtl material_0
v -0.00082500 0.00467800 0.02374100
v -0.00082500 0.00467800 0.02374100
v -0.00305300 0.00363900 0.02374100
v -0.00305300 0.00363900 0.02374100
v -0.00446400 0.00162500 0.02374100
v -0.00446400 0.00162500 0.02374100
v -0.00467800 -0.00082500 0.02374100
v -0.00467800 -0.00082500 0.02374100
v -0.00467800 -0.00082500 0.02374100
v -0.00363900 -0.00305300 0.02374100
v -0.00363900 -0.00305300 0.02374100
v -0.00162500 -0.00446400 0.02374100
v -0.00162500 -0.00446400 0.02374100
v 0.00082500 -0.00467800 0.02374100
v 0.00082500 -0.00467800 0.02374100
v 0.00305300 -0.00363900 0.02374100
v 0.00305300 -0.00363900 0.02374100
v 0.00446400 -0.00162500 0.02374100
v 0.00446400 -0.00162500 0.02374100
v 0.00467800 0.00082500 0.02374100
v 0.00467800 0.00082500 0.02374100
v 0.00363900 0.00305300 0.02374100
v 0.00363900 0.00305300 0.02374100
v 0.00162500 0.00446400 0.02374100
v 0.00162500 0.00446400 0.02374100
v -0.00473100 0.00042700 0.01990000
v -0.00473100 0.00042700 0.01990000
v -0.00473100 0.00042700 0.01990000
v -0.00431000 -0.00199600 0.01990000
v -0.00431000 -0.00199600 0.01990000
v -0.00273500 -0.00388400 0.01990000
v -0.00273500 -0.00388400 0.01990000
v -0.00042700 -0.00473100 0.01990000
v -0.00042700 -0.00473100 0.01990000
v 0.00199600 -0.00431000 0.01990000
v 0.00199600 -0.00431000 0.01990000
v 0.00388400 -0.00273500 0.01990000
v 0.00388400 -0.00273500 0.01990000
v 0.00473100 -0.00042700 0.01990000
v 0.00473100 -0.00042700 0.01990000
v 0.00431000 0.00199600 0.01990000
v 0.00431000 0.00199600 0.01990000
v 0.00273500 0.00388400 0.01990000
v 0.00273500 0.00388400 0.01990000
v 0.00042700 0.00473100 0.01990000
v 0.00042700 0.00473100 0.01990000
v -0.00199600 0.00431000 0.01990000
v -0.00199600 0.00431000 0.01990000
v -0.00388400 0.00273500 0.01990000
v -0.00388400 0.00273500 0.01990000
v -0.00979500 -0.00201300 0.01990000
v -0.00979500 -0.00201300 0.01990000
v -0.00747600 -0.00664100 0.01990000
v -0.00747600 -0.00664100 0.01990000
v -0.00315400 -0.00949000 0.01990000
v -0.00315400 -0.00949000 0.01990000
v 0.00201300 -0.00979500 0.01990000
v 0.00201300 -0.00979500 0.01990000
v 0.00201300 -0.00979500 0.01990000
v 0.00664100 -0.00747600 0.01990000
v 0.00664100 -0.00747600 0.01990000
v 0.00949000 -0.00315400 0.01990000
v 0.00949000 -0.00315400 0.01990000
v 0.00979500 0.00201300 0.01990000
v 0.00979500 0.00201300 0.01990000
v 0.00747600 0.00664100 0.01990000
v 0.00747600 0.00664100 0.01990000
v 0.00315400 0.00949000 0.01990000
v 0.00315400 0.00949000 0.01990000
v -0.00201300 0.00979500 0.01990000
v -0.00201300 0.00979500 0.01990000
v -0.00664100 0.00747600 0.01990000
v -0.00664100 0.00747600 0.01990000
v -0.00949000 0.00315400 0.01990000
v -0.00949000 0.00315400 0.01990000
v -0.00994700 -0.00102500 0.01690000
v -0.00810200 -0.00586100 0.01690000
v -0.00408600 -0.00912700 0.01690000
v 0.00102500 -0.00994700 0.01690000
v 0.00586100 -0.00810200 0.01690000
v 0.00586100 -0.00810200 0.01690000
v 0.00912700 -0.00408600 0.01690000
v 0.00994700 0.00102500 0.01690000
v 0.00810200 0.00586100 0.01690000
v 0.00408600 0.00912700 0.01690000
v -0.00102500 0.00994700 0.01690000
v -0.00586100 0.00810200 0.01690000
v -0.00912700 0.00408600 0.01690000
vn -0.00000000 -0.00000000 100.00000000
vn -17.36481800 98.48077500 0.00000000
vn -0.00000000 -0.00000000 100.00000000
vn -64.27876100 76.60444400 0.00000000
vn -93.96926200 34.20201400 -0.00000000
vn -0.00000000 -0.00000000 100.00000000
vn -0.00000000 -0.00000000 100.00000000
vn -98.48077500 -17.36481800 -0.00000000
vn -98.48077500 -17.36481800 -0.00000000
vn -0.00000000 -0.00000000 100.00000000
vn -76.60444400 -64.27876100 -0.00000000
vn -0.00000000 -0.00000000 100.00000000
vn -34.20201400 -93.96926200 -0.00000000
vn 17.36481800 -98.48077500 -0.00000000
vn -0.00000000 -0.00000000 100.00000000
vn -0.00000000 -0.00000000 100.00000000
vn 64.27876100 -76.60444400 -0.00000000
vn -0.00000000 -0.00000000 100.00000000
vn 93.96926200 -34.20201400 0.00000000
vn -0.00000000 -0.00000000 100.00000000
vn 98.48077500 17.36481800 0.00000000
vn 76.60444400 64.27876100 0.00000000
vn -0.00000000 -0.00000000 100.00000000
vn -0.00000000 -0.00000000 100.00000000
vn 34.20201400 93.96926200 0.00000000
vn -99.59563000 8.98390200 -0.00000000
vn -99.59563000 8.98390200 -0.00000000
vn -0.00000000 -0.00000000 100.00000000
vn -90.74429700 -42.01752800 -0.00000000
vn -0.00000000 -0.00000000 100.00000000
vn -0.00000000 -0.00000000 100.00000000
vn -57.57810200 -81.76039500 -0.00000000
vn -8.98390200 -99.59563000 -0.00000000
vn -0.00000000 -0.00000000 100.00000000
vn 42.01752800 -90.74429700 -0.00000000
vn -0.00000000 -0.00000000 100.00000000
vn 81.76039500 -57.57810200 -0.00000000
vn -0.00000000 -0.00000000 100.00000000
vn 99.59563000 -8.98390200 0.00000000
vn -0.00000000 -0.00000000 100.00000000
vn 90.74429700 42.01752800 0.00000000
vn -0.00000000 -0.00000000 100.00000000
vn -0.00000000 -0.00000000 100.00000000
vn 57.57810200 81.76039500 0.00000000
vn 8.98390200 99.59563000 0.00000000
vn -0.00000000 -0.00000000 100.00000000
vn -42.01752800 90.74429700 0.00000000
vn -0.00000000 -0.00000000 100.00000000
vn -0.00000000 -0.00000000 100.00000000
vn -81.76039500 57.57810200 0.00000000
vn -97.95211500 -20.13413000 -0.00000000
vn -0.00000000 -0.00000000 100.00000000
vn -74.76195500 -66.41272500 -0.00000000
vn -0.00000000 -0.00000000 100.00000000
vn -31.53938900 -94.89608500 -0.00000000
vn -0.00000000 -0.00000000 100.00000000
vn -0.00000000 -0.00000000 100.00000000
vn 20.13413000 -97.95211500 -0.00000000
vn 20.13413000 -97.95211500 -0.00000000
vn 66.41272500 -74.76195500 -0.00000000
vn -0.00000000 -0.00000000 100.00000000
vn -0.00000000 -0.00000000 100.00000000
vn 94.89608500 -31.53938900 0.00000000
vn -0.00000000 -0.00000000 100.00000000
vn 97.95211500 20.13413000 0.00000000
vn -0.00000000 -0.00000000 100.00000000
vn 74.76195500 66.41272500 0.00000000
vn 31.53938900 94.89608500 0.00000000
vn -0.00000000 -0.00000000 100.00000000
vn -0.00000000 -0.00000000 100.00000000
vn -20.13413000 97.95211500 0.00000000
vn -66.41272500 74.76195500 0.00000000
vn -0.00000000 -0.00000000 100.00000000
vn -94.89608500 31.53938900 -0.00000000
vn -0.00000000 -0.00000000 100.00000000
vn -99.47324900 -10.25050000 -0.00000000
vn -81.02111100 -58.61381700 -0.00000000
vn -40.85943200 -91.27161000 -0.00000000
vn 10.25050000 -99.47324900 -0.00000000
vn 58.61381700 -81.02111100 -0.00000000
vn 58.61381700 -81.02111100 -0.00000000
vn 91.27161000 -40.85943200 0.00000000
vn 99.47324900 10.25050000 0.00000000
vn 81.02111100 58.61381700 0.00000000
vn 40.85943200 91.27161000 0.00000000
vn -10.25050000 99.47324900 0.00000000
vn -58.61381700 81.02111100 0.00000000
vn -91.27161000 40.85943200 -0.00000000
vt 0.12417500 -0.45848200
vt 0.00000000 -0.87176300
vt 0.33677900 -0.33497000
vt -0.00000000 -1.12047200
vt 0.00000000 -1.36918100
vt 0.45914400 -0.12170300
vt 0.45848200 0.12417500
vt 0.00000000 -1.61789100
vt 0.00000000 1.36662200
vt 0.33497000 0.33677900
vt 0.00000000 1.11791300
vt 0.12170300 0.45914400
vt -0.00000000 0.86920300
vt -0.00000000 0.62049400
vt -0.12417500 0.45848200
vt -0.33677900 0.33497000
vt 0.00000000 0.37178500
vt -0.45914400 0.12170300
vt -0.00000000 0.12307500
vt -0.45848200 -0.12417500
vt -0.00000000 -0.12563400
vt -0.00000000 -0.37434400
vt -0.33497000 -0.33677900
vt -0.12170300 -0.45914400
vt 0.00000000 -0.62305300
vt -0.38409400 -1.49225700
vt -0.38409400 1.49225700
vt -0.11413900 -0.46108300
vt -0.38409400 1.24354700
vt 0.13169400 -0.45637900
vt 0.34224000 -0.32938800
vt -0.38409400 0.99483800
vt -0.38409400 0.74612800
vt 0.46108300 -0.11413900
vt -0.38409400 0.49741900
vt 0.45637900 0.13169400
vt -0.38409400 0.24870900
vt 0.32938800 0.34224000
vt -0.38409400 -0.00000000
vt 0.11413900 0.46108300
vt -0.38409400 -0.24870900
vt -0.13169400 0.45637900
vt -0.34224000 0.32938800
vt -0.38409400 -0.49741900
vt -0.38409400 -0.74612800
vt -0.46108300 0.11413900
vt -0.38409400 -0.99483800
vt -0.45637900 -0.13169400
vt -0.32938800 -0.34224000
vt -0.38409400 -1.24354700
vt 0.00000000 -1.62081700
vt 0.05000000 -0.99874900
vt 0.00000000 -2.14441600
vt 0.54267600 -0.83994200
vt -0.00000000 -2.66801500
vt 0.88994200 -0.45607300
vt 0.99874900 0.05000000
vt 0.00000000 3.09157200
vt 0.00000000 -3.19161400
vt 0.00000000 2.56797300
vt 0.83994200 0.54267600
vt 0.45607300 0.88994200
vt -0.00000000 2.04437400
vt -0.05000000 0.99874900
vt -0.00000000 1.52077500
vt -0.54267600 0.83994200
vt -0.00000000 0.99717700
vt 0.00000000 0.47357800
vt -0.88994200 0.45607300
vt -0.99874900 -0.05000000
vt -0.00000000 -0.05002100
vt -0.00000000 -0.57362000
vt -0.83994200 -0.54267600
vt 0.00000000 -1.09721800
vt -0.45607300 -0.88994200
vt -0.30000000 -1.52077500
vt -0.30000000 -2.04437400
vt -0.30000000 -2.56797300
vt -0.30000000 -3.09157200
vt -0.30000000 2.66801500
vt -0.30000000 -3.61517100
vt -0.30000000 2.14441600
vt -0.30000000 1.62081700
vt -0.30000000 1.09721800
vt -0.30000000 0.57362000
vt -0.30000000 0.05002100
vt -0.30000000 -0.47357800
vt -0.30000000 -0.99717700
f 24/24/24 1/1/1 23/23/23
f 23/23/23 1/1/1 3/3/3
f 23/23/23 3/3/3 20/20/20
f 20/20/20 3/3/3 6/6/6
f 20/20/20 6/6/6 18/18/18
f 18/18/18 6/6/6 7/7/7
f 18/18/18 7/7/7 16/16/16
f 16/16/16 7/7/7 10/10/10
f 16/16/16 10/10/10 15/15/15
f 15/15/15 10/10/10 12/12/12
f 29/29/29 9/9/9 27/27/27
f 26/26/26 8/8/8 5/5/5
f 26/26/26 5/5/5 50/50/50
f 50/50/50 5/5/5 4/4/4
f 50/50/50 4/4/4 47/47/47
f 47/47/47 4/4/4 2/2/2
f 47/47/47 2/2/2 45/45/45
f 45/45/45 2/2/2 25/25/25
f 45/45/45 25/25/25 44/44/44
f 44/44/44 25/25/25 22/22/22
f 44/44/44 22/22/22 41/41/41
f 41/41/41 22/22/22 21/21/21
f 41/41/41 21/21/21 39/39/39
f 39/39/39 21/21/21 19/19/19
f 39/39/39 19/19/19 37/37/37
f 37/37/37 19/19/19 17/17/17
f 37/37/37 17/17/17 35/35/35
f 35/35/35 17/17/17 14/14/14
f 35/35/35 14/14/14 33/33/33
f 33/33/33 14/14/14 13/13/13
f 33/33/33 13/13/13 32/32/32
f 32/32/32 13/13/13 11/11/11
f 32/32/32 11/11/11 29/29/29
f 29/29/29 11/11/11 9/9/9
f 54/54/54 30/30/30 52/52/52
f 52/52/52 30/30/30 28/28/28
f 52/52/52 28/28/28 75/75/75
f 75/75/75 28/28/28 49/49/49
f 75/75/75 49/49/49 73/73/73
f 73/73/73 49/49/49 48/48/48
f 73/73/73 48/48/48 70/70/70
f 70/70/70 48/48/48 46/46/46
f 70/70/70 46/46/46 69/69/69
f 69/69/69 46/46/46 43/43/43
f 69/69/69 43/43/43 66/66/66
f 66/66/66 43/43/43 42/42/42
f 66/66/66 42/42/42 64/64/64
f 64/64/64 42/42/42 40/40/40
f 64/64/64 40/40/40 62/62/62
f 62/62/62 40/40/40 38/38/38
f 62/62/62 38/38/38 61/61/61
f 61/61/61 38/38/38 36/36/36
f 61/61/61 36/36/36 57/57/57
f 57/57/57 36/36/36 34/34/34
f 57/57/57 34/34/34 56/56/56
f 56/56/56 34/34/34 31/31/31
f 56/56/56 31/31/31 54/54/54
f 54/54/54 31/31/31 30/30/30
f 77/77/77 51/51/51 76/76/76
f 76/76/76 51/51/51 74/74/74
f 76/76/76 74/74/74 88/88/88
f 88/88/88 74/74/74 72/72/72
f 88/88/88 72/72/72 87/87/87
f 87/87/87 72/72/72 71/71/71
f 87/87/87 71/71/71 86/86/86
f 86/86/86 71/71/71 68/68/68
f 86/86/86 68/68/68 85/85/85
f 85/85/85 68/68/68 67/67/67
f 85/85/85 67/67/67 84/84/84
f 84/84/84 67/67/67 65/65/65
f 84/84/84 65/65/65 83/83/83
f 83/83/83 65/65/65 63/63/63
f 83/83/83 63/63/63 82/82/82
f 82/82/82 63/63/63 60/60/60
f 82/82/82 60/60/60 80/80/80
f 80/80/80 60/60/60 58/58/58
f 81/81/81 59/59/59 79/79/79
f 79/79/79 59/59/59 55/55/55
f 79/79/79 55/55/55 78/78/78
f 78/78/78 55/55/55 53/53/53
f 78/78/78 53/53/53 77/77/77
f 77/77/77 53/53/53 51/51/51

