mtllib material.mtl
usemtl material_0
v 0.05200000 0.02189000 -0.01390000
v 0.05200000 0.02189000 -0.01390000
v 0.05200000 0.02189000 -0.01390000
v 0.05200000 0.02189000 0.00610000
v 0.05200000 0.02189000 0.00610000
v 0.05200000 0.02189000 0.00610000
v 0.05200000 0.02039000 0.00610000
v 0.05200000 0.02039000 0.00610000
v 0.05200000 0.02039000 0.00610000
v 0.05200000 0.02039000 -0.01390000
v 0.05200000 0.02039000 -0.01390000
v 0.05200000 0.02039000 -0.01390000
v -0.05000000 0.02189000 -0.01590000
v -0.05000000 0.02189000 -0.01590000
v -0.05000000 0.02189000 -0.01590000
v 0.05000000 0.02189000 -0.01590000
v 0.05000000 0.02189000 -0.01590000
v 0.05000000 0.02189000 -0.01590000
v 0.05000000 0.02039000 -0.01590000
v 0.05000000 0.02039000 -0.01590000
v 0.05000000 0.02039000 -0.01590000
v -0.05000000 0.02039000 -0.01590000
v -0.05000000 0.02039000 -0.01590000
v -0.05000000 0.02039000 -0.01590000
v -0.05200000 0.02189000 0.00610000
v -0.05200000 0.02189000 0.00610000
v -0.05200000 0.02189000 0.00610000
v -0.05200000 0.02189000 -0.01390000
v -0.05200000 0.02189000 -0.01390000
v -0.05200000 0.02189000 -0.01390000
v -0.05200000 0.02039000 -0.01390000
v -0.05200000 0.02039000 -0.01390000
v -0.05200000 0.02039000 -0.01390000
v -0.05200000 0.02039000 0.00610000
v -0.05200000 0.02039000 0.00610000
v -0.05200000 0.02039000 0.00610000
v -0.05000000 0.02039000 0.00810000
v -0.05000000 0.02039000 0.00810000
v -0.05000000 0.02039000 0.00810000
v 0.05000000 0.02039000 0.00810000
v 0.05000000 0.02039000 0.00810000
v 0.05000000 0.02039000 0.00810000
v 0.05000000 0.02189000 0.00810000
v 0.05000000 0.02189000 0.00810000
v 0.05000000 0.02189000 0.00810000
v -0.05000000 0.02189000 0.00810000
v -0.05000000 0.02189000 0.00810000
v -0.05000000 0.02189000 0.00810000
v 0.05100000 0.02189000 0.00783200
v 0.05100000 0.02189000 0.00783200
v 0.05173200 0.02189000 0.00710000
v 0.05173200 0.02189000 0.00710000
v 0.05173200 0.02189000 -0.01490000
v 0.05173200 0.02189000 -0.01490000
v 0.05100000 0.02189000 -0.01563200
v 0.05100000 0.02189000 -0.01563200
v -0.05100000 0.02189000 -0.01563200
v -0.05100000 0.02189000 -0.01563200
v -0.05173200 0.02189000 -0.01490000
v -0.05173200 0.02189000 -0.01490000
v -0.05173200 0.02189000 0.00710000
v -0.05173200 0.02189000 0.00710000
v -0.05100000 0.02189000 0.00783200
v -0.05100000 0.02189000 0.00783200
v 0.05173200 0.02039000 0.00710000
v 0.05173200 0.02039000 0.00710000
v 0.05100000 0.02039000 0.00783200
v 0.05100000 0.02039000 0.00783200
v -0.05100000 0.02039000 0.00783200
v -0.05100000 0.02039000 0.00783200
v -0.05173200 0.02039000 0.00710000
v -0.05173200 0.02039000 0.00710000
v -0.05173200 0.02039000 -0.01490000
v -0.05173200 0.02039000 -0.01490000
v -0.05100000 0.02039000 -0.01563200
v -0.05100000 0.02039000 -0.01563200
v 0.05100000 0.02039000 -0.01563200
v 0.05100000 0.02039000 -0.01563200
v 0.05173200 0.02039000 -0.01490000
v 0.05173200 0.02039000 -0.01490000
v -0.05200000 -0.02191000 -0.01390000
v -0.05200000 -0.02191000 -0.01390000
v -0.05200000 -0.02191000 -0.01390000
v -0.05200000 -0.02191000 0.00610000
v -0.05200000 -0.02191000 0.00610000
v -0.05200000 -0.02191000 0.00610000
v -0.05200000 -0.02041000 0.00610000
v -0.05200000 -0.02041000 0.00610000
v -0.05200000 -0.02041000 0.00610000
v -0.05200000 -0.02041000 -0.01390000
v -0.05200000 -0.02041000 -0.01390000
v -0.05200000 -0.02041000 -0.01390000
v 0.05000000 -0.02191000 -0.01590000
v 0.05000000 -0.02191000 -0.01590000
v 0.05000000 -0.02191000 -0.01590000
v -0.05000000 -0.02191000 -0.01590000
v -0.05000000 -0.02191000 -0.01590000
v -0.05000000 -0.02191000 -0.01590000
v -0.05000000 -0.02041000 -0.01590000
v -0.05000000 -0.02041000 -0.01590000
v -0.05000000 -0.02041000 -0.01590000
v 0.05000000 -0.02041000 -0.01590000
v 0.05000000 -0.02041000 -0.01590000
v 0.05000000 -0.02041000 -0.01590000
v 0.05200000 -0.02191000 0.00610000
v 0.05200000 -0.02191000 0.00610000
v 0.05200000 -0.02191000 0.00610000
v 0.05200000 -0.02191000 -0.01390000
v 0.05200000 -0.02191000 -0.01390000
v 0.05200000 -0.02191000 -0.01390000
v 0.05200000 -0.02041000 -0.01390000
v 0.05200000 -0.02041000 -0.01390000
v 0.05200000 -0.02041000 -0.01390000
v 0.05200000 -0.02041000 0.00610000
v 0.05200000 -0.02041000 0.00610000
v 0.05200000 -0.02041000 0.00610000
v 0.05000000 -0.02041000 0.00810000
v 0.05000000 -0.02041000 0.00810000
v 0.05000000 -0.02041000 0.00810000
v -0.05000000 -0.02041000 0.00810000
v -0.05000000 -0.02041000 0.00810000
v -0.05000000 -0.02041000 0.00810000
v -0.05000000 -0.02191000 0.00810000
v -0.05000000 -0.02191000 0.00810000
v -0.05000000 -0.02191000 0.00810000
v 0.05000000 -0.02191000 0.00810000
v 0.05000000 -0.02191000 0.00810000
v 0.05000000 -0.02191000 0.00810000
v -0.05100000 -0.02191000 0.00783200
v -0.05100000 -0.02191000 0.00783200
v -0.05173200 -0.02191000 0.00710000
v -0.05173200 -0.02191000 0.00710000
v -0.05173200 -0.02191000 -0.01490000
v -0.05173200 -0.02191000 -0.01490000
v -0.05100000 -0.02191000 -0.01563200
v -0.05100000 -0.02191000 -0.01563200
v 0.05100000 -0.02191000 -0.01563200
v 0.05100000 -0.02191000 -0.01563200
v 0.05173200 -0.02191000 -0.01490000
v 0.05173200 -0.02191000 -0.01490000
v 0.05173200 -0.02191000 0.00710000
v 0.05173200 -0.02191000 0.00710000
v 0.05100000 -0.02191000 0.00783200
v 0.05100000 -0.02191000 0.00783200
v -0.05173200 -0.02041000 0.00710000
v -0.05173200 -0.02041000 0.00710000
v -0.05100000 -0.02041000 0.00783200
v -0.05100000 -0.02041000 0.00783200
v 0.05100000 -0.02041000 0.00783200
v 0.05100000 -0.02041000 0.00783200
v 0.05173200 -0.02041000 0.00710000
v 0.05173200 -0.02041000 0.00710000
v 0.05173200 -0.02041000 -0.01490000
v 0.05173200 -0.02041000 -0.01490000
v 0.05100000 -0.02041000 -0.01563200
v 0.05100000 -0.02041000 -0.01563200
v -0.05100000 -0.02041000 -0.01563200
v -0.05100000 -0.02041000 -0.01563200
v -0.05173200 -0.02041000 -0.01490000
v -0.05173200 -0.02041000 -0.01490000
vn -0.00000000 100.00000000 -0.00000000
vn 100.00000000 0.00000000 -0.00000000
vn 100.00000000 0.00000000 -0.00000000
vn 100.00000000 0.00000000 -0.00000000
vn -0.00000000 100.00000000 -0.00000000
vn 100.00000000 0.00000000 -0.00000000
vn 100.00000000 0.00000000 -0.00000000
vn 0.00000000 -100.00000000 0.00000000
vn 100.00000000 0.00000000 -0.00000000
vn 100.00000000 0.00000000 -0.00000000
vn 100.00000000 0.00000000 -0.00000000
vn 0.00000000 -100.00000000 0.00000000
vn -0.00000000 -0.00000000 -100.00000000
vn -0.00000000 -0.00000000 -100.00000000
vn -0.00000000 100.00000000 -0.00000000
vn -0.00000000 -0.00000000 -100.00000000
vn -0.00000000 -0.00000000 -100.00000000
vn -0.00000000 100.00000000 -0.00000000
vn -0.00000000 -0.00000000 -100.00000000
vn -0.00000000 -0.00000000 -100.00000000
vn 0.00000000 -100.00000000 0.00000000
vn -0.00000000 -0.00000000 -100.00000000
vn -0.00000000 -0.00000000 -100.00000000
vn 0.00000000 -100.00000000 0.00000000
vn -0.00000000 100.00000000 -0.00000000
vn -100.00000000 -0.00000000 0.00000000
vn -100.00000000 -0.00000000 0.00000000
vn -0.00000000 100.00000000 -0.00000000
vn -100.00000000 -0.00000000 0.00000000
vn -100.00000000 -0.00000000 0.00000000
vn 0.00000000 -100.00000000 0.00000000
vn -100.00000000 -0.00000000 0.00000000
vn -100.00000000 -0.00000000 0.00000000
vn -100.00000000 -0.00000000 0.00000000
vn 0.00000000 -100.00000000 0.00000000
vn -100.00000000 -0.00000000 0.00000000
vn 0.00000000 0.00000000 100.00000000
vn 0.00000000 -100.00000000 0.00000000
vn 0.00000000 0.00000000 100.00000000
vn 0.00000000 -100.00000000 0.00000000
vn 0.00000000 0.00000000 100.00000000
vn 0.00000000 0.00000000 100.00000000
vn -0.00000000 100.00000000 -0.00000000
vn 0.00000000 0.00000000 100.00000000
vn 0.00000000 0.00000000 100.00000000
vn -0.00000000 100.00000000 -0.00000000
vn 0.00000000 0.00000000 100.00000000
vn 0.00000000 0.00000000 100.00000000
vn 50.00000000 0.00000000 86.60254000
vn -0.00000000 100.00000000 -0.00000000
vn -0.00000000 100.00000000 -0.00000000
vn 86.60254000 0.00000000 50.00000000
vn -0.00000000 100.00000000 -0.00000000
vn 86.60254000 0.00000000 -50.00000000
vn -0.00000000 100.00000000 -0.00000000
vn 50.00000000 0.00000000 -86.60254000
vn -0.00000000 100.00000000 -0.00000000
vn -50.00000000 -0.00000000 -86.60254000
vn -0.00000000 100.00000000 -0.00000000
vn -86.60254000 -0.00000000 -50.00000000
vn -86.60254000 -0.00000000 50.00000000
vn -0.00000000 100.00000000 -0.00000000
vn -0.00000000 100.00000000 -0.00000000
vn -50.00000000 -0.00000000 86.60254000
vn 86.60254000 0.00000000 50.00000000
vn 0.00000000 -100.00000000 0.00000000
vn 0.00000000 -100.00000000 0.00000000
vn 50.00000000 0.00000000 86.60254000
vn -50.00000000 -0.00000000 86.60254000
vn 0.00000000 -100.00000000 0.00000000
vn -86.60254000 -0.00000000 50.00000000
vn 0.00000000 -100.00000000 0.00000000
vn -86.60254000 -0.00000000 -50.00000000
vn 0.00000000 -100.00000000 0.00000000
vn -50.00000000 -0.00000000 -86.60254000
vn 0.00000000 -100.00000000 0.00000000
vn 0.00000000 -100.00000000 0.00000000
vn 50.00000000 0.00000000 -86.60254000
vn 0.00000000 -100.00000000 0.00000000
vn 86.60254000 0.00000000 -50.00000000
vn -100.00000000 -0.00000000 0.00000000
vn 0.00000000 -100.00000000 -0.00000000
vn -100.00000000 -0.00000000 0.00000000
vn -100.00000000 -0.00000000 0.00000000
vn -100.00000000 -0.00000000 0.00000000
vn 0.00000000 -100.00000000 -0.00000000
vn -0.00000000 100.00000000 0.00000000
vn -100.00000000 -0.00000000 0.00000000
vn -100.00000000 -0.00000000 0.00000000
vn -100.00000000 -0.00000000 0.00000000
vn -0.00000000 100.00000000 0.00000000
vn -100.00000000 -0.00000000 0.00000000
vn 0.00000000 -100.00000000 -0.00000000
vn -0.00000000 0.00000000 -100.00000000
vn -0.00000000 0.00000000 -100.00000000
vn 0.00000000 -100.00000000 -0.00000000
vn -0.00000000 0.00000000 -100.00000000
vn -0.00000000 0.00000000 -100.00000000
vn -0.00000000 0.00000000 -100.00000000
vn -0.00000000 0.00000000 -100.00000000
vn -0.00000000 100.00000000 0.00000000
vn -0.00000000 100.00000000 0.00000000
vn -0.00000000 0.00000000 -100.00000000
vn -0.00000000 0.00000000 -100.00000000
vn 100.00000000 0.00000000 -0.00000000
vn 100.00000000 0.00000000 -0.00000000
vn 0.00000000 -100.00000000 -0.00000000
vn 0.00000000 -100.00000000 -0.00000000
vn 100.00000000 0.00000000 -0.00000000
vn 100.00000000 0.00000000 -0.00000000
vn 100.00000000 0.00000000 -0.00000000
vn 100.00000000 0.00000000 -0.00000000
vn -0.00000000 100.00000000 0.00000000
vn 100.00000000 0.00000000 -0.00000000
vn -0.00000000 100.00000000 0.00000000
vn 100.00000000 0.00000000 -0.00000000
vn -0.00000000 100.00000000 0.00000000
vn 0.00000000 -0.00000000 100.00000000
vn 0.00000000 -0.00000000 100.00000000
vn -0.00000000 100.00000000 0.00000000
vn 0.00000000 -0.00000000 100.00000000
vn 0.00000000 -0.00000000 100.00000000
vn 0.00000000 -0.00000000 100.00000000
vn 0.00000000 -0.00000000 100.00000000
vn 0.00000000 -100.00000000 -0.00000000
vn 0.00000000 -0.00000000 100.00000000
vn 0.00000000 -100.00000000 -0.00000000
vn 0.00000000 -0.00000000 100.00000000
vn 0.00000000 -100.00000000 -0.00000000
vn -50.00000000 -0.00000000 86.60254000
vn 0.00000000 -100.00000000 -0.00000000
vn -86.60254000 -0.00000000 50.00000000
vn 0.00000000 -100.00000000 -0.00000000
vn -86.60254000 -0.00000000 -50.00000000
vn -50.00000000 -0.00000000 -86.60254000
vn 0.00000000 -100.00000000 -0.00000000
vn 0.00000000 -100.00000000 -0.00000000
vn 50.00000000 0.00000000 -86.60254000
vn 0.00000000 -100.00000000 -0.00000000
vn 86.60254000 0.00000000 -50.00000000
vn 86.60254000 0.00000000 50.00000000
vn 0.00000000 -100.00000000 -0.00000000
vn 50.00000000 0.00000000 86.60254000
vn 0.00000000 -100.00000000 -0.00000000
vn -86.60254000 -0.00000000 50.00000000
vn -0.00000000 100.00000000 0.00000000
vn -0.00000000 100.00000000 0.00000000
vn -50.00000000 -0.00000000 86.60254000
vn 50.00000000 0.00000000 86.60254000
vn -0.00000000 100.00000000 0.00000000
vn -0.00000000 100.00000000 0.00000000
vn 86.60254000 0.00000000 50.00000000
vn -0.00000000 100.00000000 0.00000000
vn 86.60254000 0.00000000 -50.00000000
vn -0.00000000 100.00000000 0.00000000
vn 50.00000000 0.00000000 -86.60254000
vn -0.00000000 100.00000000 0.00000000
vn -50.00000000 -0.00000000 -86.60254000
vn -0.00000000 100.00000000 0.00000000
vn -86.60254000 -0.00000000 -50.00000000
vt -5.20000000 -1.00000000
vt -0.00000000 -0.00000000
vt -0.00000000 0.20000000
vt -0.00000000 2.20000000
vt -5.20000000 1.00000000
vt -0.00000000 -0.00000000
vt -0.15000000 2.20000000
vt 5.20000000 1.00000000
vt -0.15000000 -0.00000000
vt -0.15000000 0.20000000
vt -0.15000000 0.00000000
vt 5.20000000 -1.00000000
vt 0.00000000 -0.20000000
vt 0.00000000 -0.31415900
vt 5.00000000 -1.20000000
vt -0.00000000 -10.20000000
vt 0.00000000 -0.31415900
vt -5.00000000 -1.20000000
vt 0.15000000 -10.20000000
vt -0.15000000 -0.31415900
vt 5.00000000 -1.20000000
vt 0.15000000 -0.20000000
vt -0.15000000 -0.31415900
vt -5.00000000 -1.20000000
vt 5.20000000 1.00000000
vt 0.00000000 2.20000000
vt 0.00000000 0.62831900
vt 5.20000000 -1.00000000
vt 0.00000000 0.20000000
vt 0.00000000 -0.62831900
vt -5.20000000 -1.00000000
vt -0.15000000 -0.62831900
vt 0.15000000 0.20000000
vt 0.15000000 2.20000000
vt -5.20000000 1.00000000
vt -0.15000000 0.62831900
vt -0.15000000 0.31415900
vt -5.00000000 1.20000000
vt -0.15000000 -0.20000000
vt 5.00000000 1.20000000
vt -0.15000000 -10.20000000
vt -0.15000000 0.31415900
vt -5.00000000 1.20000000
vt 0.00000000 -10.20000000
vt -0.00000000 0.31415900
vt 5.00000000 1.20000000
vt -0.00000000 0.31415900
vt -0.00000000 -0.20000000
vt -0.00000000 0.20944000
vt -5.10000000 1.17320500
vt -5.17320500 1.10000000
vt -0.00000000 0.10472000
vt -5.17320500 -1.10000000
vt -0.00000000 -0.10472000
vt -5.10000000 -1.17320500
vt -0.00000000 -0.20944000
vt 5.10000000 -1.17320500
vt 0.00000000 -0.41887900
vt 5.17320500 -1.10000000
vt 0.00000000 -0.52359900
vt 0.00000000 0.52359900
vt 5.17320500 1.10000000
vt 5.10000000 1.17320500
vt 0.00000000 0.41887900
vt -0.15000000 0.10472000
vt 5.17320500 1.10000000
vt 5.10000000 1.17320500
vt -0.15000000 0.20944000
vt -0.15000000 0.41887900
vt -5.10000000 1.17320500
vt -0.15000000 0.52359900
vt -5.17320500 1.10000000
vt -0.15000000 -0.52359900
vt -5.17320500 -1.10000000
vt -0.15000000 -0.41887900
vt -5.10000000 -1.17320500
vt 5.10000000 -1.17320500
vt -0.15000000 -0.20944000
vt 5.17320500 -1.10000000
vt -0.15000000 -0.10472000
vt -0.00000000 0.20000000
vt -5.20000000 -1.00000000
vt -0.00000000 0.00000000
vt -0.00000000 2.20000000
vt -0.00000000 0.00000000
vt -5.20000000 1.00000000
vt 5.20000000 1.00000000
vt -0.15000000 2.20000000
vt -0.15000000 -0.00000000
vt -0.15000000 0.00000000
vt 5.20000000 -1.00000000
vt -0.15000000 0.20000000
vt 5.00000000 -1.20000000
vt 0.00000000 -0.20000000
vt 0.00000000 -0.31415900
vt -5.00000000 -1.20000000
vt 0.00000000 -0.31415900
vt 0.00000000 -10.20000000
vt 0.15000000 -10.20000000
vt -0.15000000 -0.31415900
vt 5.00000000 -1.20000000
vt -5.00000000 -1.20000000
vt 0.15000000 -0.20000000
vt -0.15000000 -0.31415900
vt 0.00000000 0.62831900
vt 0.00000000 2.20000000
vt 5.20000000 1.00000000
vt 5.20000000 -1.00000000
vt 0.00000000 -0.62831900
vt 0.00000000 0.20000000
vt -0.15000000 -0.62831900
vt 0.15000000 0.20000000
vt -5.20000000 -1.00000000
vt -0.15000000 0.62831900
vt -5.20000000 1.00000000
vt 0.15000000 2.20000000
vt -5.00000000 1.20000000
vt -0.15000000 0.31415900
vt -0.15000000 -0.20000000
vt 5.00000000 1.20000000
vt -0.15000000 -10.20000000
vt -0.15000000 0.31415900
vt -0.00000000 0.31415900
vt -0.00000000 -10.20000000
vt -5.00000000 1.20000000
vt -0.00000000 -0.20000000
vt 5.00000000 1.20000000
vt -0.00000000 0.31415900
vt -5.10000000 1.17320500
vt -0.00000000 0.20944000
vt -5.17320500 1.10000000
vt -0.00000000 0.10472000
vt -5.17320500 -1.10000000
vt -0.00000000 -0.10472000
vt -0.00000000 -0.20944000
vt -5.10000000 -1.17320500
vt 5.10000000 -1.17320500
vt 0.00000000 -0.41887900
vt 5.17320500 -1.10000000
vt 0.00000000 -0.52359900
vt 0.00000000 0.52359900
vt 5.17320500 1.10000000
vt 0.00000000 0.41887900
vt 5.10000000 1.17320500
vt -0.15000000 0.10472000
vt 5.17320500 1.10000000
vt 5.10000000 1.17320500
vt -0.15000000 0.20944000
vt -0.15000000 0.41887900
vt -5.10000000 1.17320500
vt -5.17320500 1.10000000
vt -0.15000000 0.52359900
vt -5.17320500 -1.10000000
vt -0.15000000 -0.52359900
vt -5.10000000 -1.17320500
vt -0.15000000 -0.41887900
vt 5.10000000 -1.17320500
vt -0.15000000 -0.20944000
vt 5.17320500 -1.10000000
vt -0.15000000 -0.10472000
f 4/4/4 7/7/7 3/3/3
f 3/3/3 7/7/7 10/10/10
f 16/16/16 19/19/19 13/13/13
f 13/13/13 19/19/19 22/22/22
f 29/29/29 33/33/33 26/26/26
f 26/26/26 33/33/33 34/34/34
f 41/41/41 44/44/44 39/39/39
f 39/39/39 44/44/44 48/48/48
f 43/43/43 25/25/25 46/46/46
f 46/46/46 25/25/25 62/62/62
f 46/46/46 62/62/62 63/63/63
f 50/50/50 51/51/51 43/43/43
f 43/43/43 51/51/51 5/5/5
f 43/43/43 5/5/5 25/25/25
f 25/25/25 5/5/5 28/28/28
f 28/28/28 5/5/5 1/1/1
f 28/28/28 1/1/1 15/15/15
f 15/15/15 1/1/1 18/18/18
f 18/18/18 1/1/1 53/53/53
f 18/18/18 53/53/53 55/55/55
f 57/57/57 59/59/59 15/15/15
f 15/15/15 59/59/59 28/28/28
f 8/8/8 35/35/35 12/12/12
f 12/12/12 35/35/35 31/31/31
f 12/12/12 31/31/31 21/21/21
f 21/21/21 31/31/31 24/24/24
f 24/24/24 31/31/31 74/74/74
f 24/24/24 74/74/74 76/76/76
f 66/66/66 40/40/40 8/8/8
f 8/8/8 40/40/40 38/38/38
f 8/8/8 38/38/38 35/35/35
f 35/35/35 38/38/38 72/72/72
f 72/72/72 38/38/38 70/70/70
f 66/66/66 67/67/67 40/40/40
f 77/77/77 79/79/79 21/21/21
f 21/21/21 79/79/79 12/12/12
f 9/9/9 6/6/6 65/65/65
f 65/65/65 6/6/6 52/52/52
f 65/65/65 52/52/52 68/68/68
f 68/68/68 52/52/52 49/49/49
f 68/68/68 49/49/49 42/42/42
f 42/42/42 49/49/49 45/45/45
f 20/20/20 17/17/17 78/78/78
f 78/78/78 17/17/17 56/56/56
f 78/78/78 56/56/56 80/80/80
f 80/80/80 56/56/56 54/54/54
f 80/80/80 54/54/54 11/11/11
f 11/11/11 54/54/54 2/2/2
f 32/32/32 30/30/30 73/73/73
f 73/73/73 30/30/30 60/60/60
f 73/73/73 60/60/60 75/75/75
f 75/75/75 60/60/60 58/58/58
f 75/75/75 58/58/58 23/23/23
f 23/23/23 58/58/58 14/14/14
f 37/37/37 47/47/47 69/69/69
f 69/69/69 47/47/47 64/64/64
f 69/69/69 64/64/64 71/71/71
f 71/71/71 64/64/64 61/61/61
f 71/71/71 61/61/61 36/36/36
f 36/36/36 61/61/61 27/27/27
f 84/84/84 88/88/88 81/81/81
f 81/81/81 88/88/88 92/92/92
f 98/98/98 99/99/99 94/94/94
f 94/94/94 99/99/99 103/103/103
f 110/110/110 112/112/112 106/106/106
f 106/106/106 112/112/112 116/116/116
f 121/121/121 124/124/124 119/119/119
f 119/119/119 124/124/124 126/126/126
f 125/125/125 107/107/107 127/127/127
f 127/127/127 107/107/107 142/142/142
f 127/127/127 142/142/142 144/144/144
f 129/129/129 131/131/131 125/125/125
f 125/125/125 131/131/131 86/86/86
f 125/125/125 86/86/86 107/107/107
f 107/107/107 86/86/86 108/108/108
f 108/108/108 86/86/86 82/82/82
f 108/108/108 82/82/82 93/93/93
f 93/93/93 82/82/82 96/96/96
f 96/96/96 82/82/82 133/133/133
f 96/96/96 133/133/133 136/136/136
f 137/137/137 139/139/139 93/93/93
f 93/93/93 139/139/139 108/108/108
f 87/87/87 115/115/115 91/91/91
f 91/91/91 115/115/115 113/113/113
f 91/91/91 113/113/113 101/101/101
f 101/101/101 113/113/113 102/102/102
f 102/102/102 113/113/113 153/153/153
f 102/102/102 153/153/153 155/155/155
f 146/146/146 120/120/120 87/87/87
f 87/87/87 120/120/120 117/117/117
f 87/87/87 117/117/117 115/115/115
f 115/115/115 117/117/117 151/151/151
f 151/151/151 117/117/117 150/150/150
f 146/146/146 147/147/147 120/120/120
f 157/157/157 159/159/159 101/101/101
f 101/101/101 159/159/159 91/91/91
f 89/89/89 85/85/85 145/145/145
f 145/145/145 85/85/85 132/132/132
f 145/145/145 132/132/132 148/148/148
f 148/148/148 132/132/132 130/130/130
f 148/148/148 130/130/130 122/122/122
f 122/122/122 130/130/130 123/123/123
f 100/100/100 97/97/97 158/158/158
f 158/158/158 97/97/97 135/135/135
f 158/158/158 135/135/135 160/160/160
f 160/160/160 135/135/135 134/134/134
f 160/160/160 134/134/134 90/90/90
f 90/90/90 134/134/134 83/83/83
f 111/111/111 109/109/109 154/154/154
f 154/154/154 109/109/109 140/140/140
f 154/154/154 140/140/140 156/156/156
f 156/156/156 140/140/140 138/138/138
f 156/156/156 138/138/138 104/104/104
f 104/104/104 138/138/138 95/95/95
f 118/118/118 128/128/128 149/149/149
f 149/149/149 128/128/128 143/143/143
f 149/149/149 143/143/143 152/152/152
f 152/152/152 143/143/143 141/141/141
f 152/152/152 141/141/141 114/114/114
f 114/114/114 141/141/141 105/105/105

